<?xml version="1.0" standalone="no"?><!DOCTYPE svg PUBLIC "-//W3C//DTD SVG 1.1//EN" "http://www.w3.org/Graphics/SVG/1.1/DTD/svg11.dtd"><svg t="1732930942020" class="icon" viewBox="0 0 1024 1024" version="1.1" xmlns="http://www.w3.org/2000/svg" p-id="10124" width="48" height="48" xmlns:xlink="http://www.w3.org/1999/xlink"><path d="M562.68288 512l213.60128-213.60128a35.83488 35.83488 0 0 0 0-50.68288 35.83488 35.83488 0 0 0-50.68288 0L512 461.312 298.39872 247.71072a35.84 35.84 0 0 0-50.68288 50.688L461.31712 512l-213.60128 213.60128a35.83488 35.83488 0 0 0 0 50.68288 35.83488 35.83488 0 0 0 50.68288 0L512 562.68288l213.60128 213.60128a35.83488 35.83488 0 0 0 50.68288 0 35.83488 35.83488 0 0 0 0-50.68288L562.68288 512z" fill="#707070" p-id="10125"></path></svg>