<?xml version="1.0" encoding="UTF-8"?>
<svg width="16" height="16" viewBox="0 0 16 16" xmlns="http://www.w3.org/2000/svg">
  <!-- 垃圾桶盖 -->
  <path fill="#666666" d="
    M4.5 3
    C4.5 2.7 4.7 2.5 5 2.5
    L11 2.5
    C11.3 2.5 11.5 2.7 11.5 3
    L11.5 3.5
    L4.5 3.5
    Z"
  />
  
  <!-- 垃圾桶把手 -->
  <path fill="#666666" d="
    M3.5 3.5
    L12.5 3.5
    C13 3.5 13 4.5 12.5 4.5
    L3.5 4.5
    C3 4.5 3 3.5 3.5 3.5
    Z"
  />
  
  <!-- 垃圾桶主体 -->
  <path 
    d="
    M5 4.5
    L11 4.5
    C11.3 4.5 11.5 4.7 11.6 5
    L12.3 13
    C12.4 13.3 12.2 13.5 11.9 13.5
    L4.1 13.5
    C3.8 13.5 3.6 13.3 3.7 13
    L4.4 5
    C4.5 4.7 4.7 4.5 5 4.5
    Z"
    stroke="#666666"
    stroke-width="1"
    fill="none"
    stroke-linecap="round"
    stroke-linejoin="round"
  />
  
  <!-- 垃圾桶竖线 -->
  <path
    d="
    M6.5 6
    L6.5 12
    M9.5 6
    L9.5 12
    "
    stroke="#666666"
    stroke-width="1"
    stroke-linecap="round"
  />
</svg> 